<svg width="50" height="50" viewBox="0 0 50 50" fill="none" xmlns="http://www.w3.org/2000/svg">
<path d="M24.7952 27.4249L24.7218 27.6852C23.7006 27.6852 22.7195 27.4983 21.7717 27.1245C20.8239 26.7508 20.003 26.2635 19.3089 25.6562C18.6147 25.0555 18.0007 24.3747 17.4801 23.6338C16.9595 22.893 16.559 22.1321 16.2921 21.3646C16.0251 20.597 15.8916 19.8829 15.8916 19.2088C15.8916 18.8083 15.9383 18.4078 16.0318 17.994C16.1252 17.5802 16.3121 17.1264 16.5991 16.6191C16.8861 16.1119 17.2598 15.678 17.7204 15.3043C18.1809 14.9305 18.8216 14.6168 19.6493 14.3498C20.4769 14.0829 21.4246 13.9561 22.4992 13.9561C23.5738 13.9561 24.7818 14.1229 26.0299 14.4633C28.2191 15.0974 29.9811 16.2587 31.3227 17.934C32.6642 19.6092 33.3317 21.5248 33.3317 23.6672C33.3317 25.3692 32.9379 26.9377 32.1436 28.3726C31.3561 29.8009 30.2414 30.9489 28.7998 31.7966C27.3648 32.6509 25.763 33.078 23.9943 33.078C23.3001 33.078 22.626 33.0046 21.9786 32.8511C20.5102 32.5241 19.2688 31.8833 18.2543 30.9289C17.2398 29.9678 16.4923 28.8866 16.0051 27.6785V27.3782H22.8529H31.3828C31.6097 26.5706 31.7165 25.7296 31.7165 24.8553C31.7165 22.7996 31.1091 20.8707 29.8944 19.0686C28.6796 17.2665 27.0845 15.9917 25.1089 15.2575C24.0543 14.8704 22.9531 14.6769 21.8251 14.6769C20.1298 14.6769 18.7883 15.0773 17.7804 15.8783C16.7793 16.6792 16.2654 17.7538 16.2387 19.0953C16.2253 20.3167 16.5924 21.5648 17.3399 22.8396C18.0875 24.1144 19.1353 25.1956 20.4835 26.0767C21.8318 26.9577 23.2668 27.4048 24.7885 27.4048L24.7952 27.4249ZM31.296 27.6852H17.8539C18.5146 28.8932 19.2755 29.8744 20.1298 30.6352C20.864 31.3294 21.725 31.8566 22.7061 32.2037C23.5137 32.4507 24.3079 32.5775 25.0755 32.5775C26.3703 32.5775 27.4983 32.2705 28.4661 31.6564C29.4338 31.0424 30.188 30.1881 30.7353 29.1068C30.9489 28.693 31.1358 28.2258 31.296 27.6852Z" fill="#064C32"/>
<path d="M24.6083 0C11.0193 0 0 11.0193 0 24.6083C0 38.1973 11.0193 49.2166 24.6083 49.2166C38.1973 49.2166 49.2166 38.1973 49.2166 24.6083C49.2166 11.0193 38.1973 0 24.6083 0ZM31.7031 47.1809C30.7687 47.3678 25.6762 48.389 21.2044 45.6925C17.8806 43.6902 18.3544 41.728 14.3432 37.9236C9.73119 33.5519 7.61542 34.7399 5.16594 31.5563C1.17468 26.377 3.35052 18.5346 4.01128 16.0184C4.34499 14.7369 4.94568 12.501 6.53418 9.97814C7.26168 8.82348 9.78459 4.92567 14.4233 2.78988C21.191 -0.327037 30.1013 1.37492 34.4263 6.26054C36.9892 9.1572 35.681 10.699 39.2184 15.6847C42.9294 20.9174 45.5057 20.8573 46.7404 24.5282C48.2355 28.9733 45.9261 33.4451 44.5112 36.1816C43.4166 38.2974 39.6589 45.5791 31.6964 47.1743L31.7031 47.1809Z" fill="#064C32"/>
</svg>
