<svg width="226" height="54" viewBox="0 0 226 54" fill="none" xmlns="http://www.w3.org/2000/svg">
<path d="M85.0112 17.0584H75.2934C77.2089 17.5991 78.9442 18.5869 80.4993 20.0152C82.0545 21.4502 83.2225 22.9919 84.0034 24.6338C84.7843 26.2757 85.1781 27.8308 85.1781 29.2792C85.1781 29.8732 85.1113 30.4805 84.9712 31.0946C84.831 31.7086 84.5507 32.3961 84.1168 33.1436C83.6897 33.8978 83.129 34.5519 82.4416 35.1125C81.7541 35.6732 80.793 36.1471 79.5516 36.5342C78.3168 36.9213 76.8952 37.1215 75.2934 37.1215C73.211 37.1215 71.202 36.7745 69.2598 36.087C67.3242 35.3995 65.6022 34.4384 64.0938 33.2104C62.5854 31.9823 61.3774 30.4472 60.463 28.6051C59.5486 26.7629 59.0947 24.7606 59.0947 22.6048C59.0947 20.0552 59.6821 17.7125 60.8701 15.5701C62.0515 13.4276 63.7201 11.719 65.8692 10.4442C68.0183 9.16938 70.4144 8.52864 73.0574 8.52864C75.7005 8.52864 78.1633 9.24279 80.2724 10.6778C82.3815 12.1128 83.9633 14.0817 85.0045 16.5979V17.0451L85.0112 17.0584ZM73.0041 17.0584H62.0047C61.671 18.2665 61.5042 19.528 61.5042 20.8295C61.5042 22.8384 61.8913 24.7807 62.6789 26.6495C63.4598 28.5183 64.5143 30.1468 65.8358 31.5217C67.1573 32.8967 68.7325 33.9979 70.5546 34.8189C72.3767 35.6398 74.2922 36.047 76.3079 36.047C78.8374 36.047 80.8531 35.4463 82.3548 34.2449C83.8565 33.0435 84.6241 31.4417 84.6575 29.426C84.6775 27.7107 84.1836 25.9487 83.1758 24.1333C82.1679 22.3178 80.753 20.7427 78.9175 19.4011C77.0821 18.0596 75.1132 17.2787 73.0107 17.0584H73.0041ZM62.1449 16.6113H82.248C81.0533 14.4154 79.5382 12.6467 77.6961 11.3052C75.854 9.96362 73.7716 9.29619 71.4423 9.29619C69.1129 9.29619 67.1774 9.95028 65.5688 11.2651C63.9603 12.58 62.819 14.362 62.1516 16.6113H62.1449ZM73.845 2.93555L70.7214 6.59308H70.1341L72.5902 2.93555H73.845Z" fill="#061812"/>
<path d="M95.4505 48.5823H85.459V48.2753C86.033 48.1819 86.5803 48.0351 87.0942 47.8415C87.6081 47.6479 88.0887 47.2942 88.5425 46.7936C88.9964 46.293 89.2233 45.6857 89.2233 44.9782V13.5154C89.2233 12.1538 88.5359 11.6065 87.1609 11.8668C86.5469 12.0003 85.9796 12.2205 85.459 12.5342V12.2539C86.1264 11.8267 87.1209 11.1994 88.4357 10.3851C89.7506 9.56414 90.7384 8.9501 91.4058 8.54297H91.6861V16.2452C91.9998 15.3508 92.447 14.4765 93.0143 13.6221C93.5817 12.7678 94.3025 11.9469 95.1768 11.166C96.0512 10.3851 97.1324 9.75102 98.4139 9.27047C99.6954 8.78324 101.09 8.54297 102.599 8.54297C104.761 8.54297 106.703 8.92341 108.432 9.68429C111.022 10.7655 113.037 12.4742 114.492 14.8235C115.947 17.1662 116.668 19.8426 116.668 22.8327C116.668 26.8907 115.373 30.288 112.79 33.0244C110.201 35.7609 106.804 37.1292 102.599 37.1292C100.403 37.1292 98.4206 36.6152 96.6519 35.5941C94.3225 34.1791 92.6673 32.1234 91.6795 29.427V44.9782C91.6795 45.6857 91.9064 46.293 92.3603 46.7936C92.8141 47.2942 93.3013 47.6479 93.8086 47.8415C94.3225 48.0351 94.8631 48.1819 95.4438 48.2753V48.5823H95.4505ZM91.6861 21.0841V28.1455C92.6739 31.2357 94.3092 33.505 96.5985 34.96C98.3872 36.1147 100.383 36.6887 102.599 36.6887C104.815 36.6887 106.683 36.068 108.432 34.8198C110.181 33.5717 111.536 31.8965 112.497 29.7807C113.458 27.6716 113.932 25.3556 113.932 22.8461C113.932 20.3365 113.391 17.8136 112.31 15.6178C111.229 13.4219 109.767 11.74 107.925 10.5653C106.283 9.5241 104.508 9.0035 102.592 9.0035C101.05 9.0035 99.6286 9.2638 98.3338 9.7844C97.039 10.305 95.9644 11.0058 95.0967 11.8801C94.2291 12.7545 93.5216 13.6622 92.9743 14.6033C92.427 15.5444 91.9932 16.5255 91.6795 17.5467V21.0907L91.6861 21.0841Z" fill="#061812"/>
<path d="M118.369 22.8386C118.369 20.2356 119.01 17.8328 120.285 15.637C121.559 13.4411 123.288 11.7125 125.477 10.4443C127.666 9.17622 130.043 8.54883 132.612 8.54883C135.182 8.54883 137.625 9.18957 139.827 10.4644C142.03 11.7392 143.772 13.4678 145.046 15.657C146.321 17.8462 146.962 20.2223 146.962 22.7919C146.962 25.3615 146.321 27.8043 145.046 30.0068C143.772 32.2094 142.043 33.9514 139.854 35.2262C137.665 36.501 135.289 37.1417 132.719 37.1417C130.149 37.1417 127.68 36.501 125.477 35.2128C123.275 33.9314 121.533 32.196 120.271 30.0068C119.003 27.8177 118.376 25.4349 118.376 22.8453L118.369 22.8386ZM134.034 36.3808C136.136 36.3808 138.005 35.8135 139.634 34.6789C141.262 33.5442 142.49 32.0759 143.318 30.2805C144.145 28.4851 144.559 26.5362 144.559 24.4338C144.559 22.6317 144.219 20.8229 143.538 19.0142C142.857 17.2121 141.95 15.5836 140.802 14.1419C139.654 12.7003 138.245 11.5323 136.557 10.6379C134.875 9.74354 133.099 9.29636 131.237 9.29636C129.155 9.29636 127.299 9.85701 125.684 10.985C124.062 12.1129 122.841 13.5613 122.013 15.3433C121.186 17.1187 120.772 19.0542 120.772 21.1366C120.772 22.9454 121.106 24.7541 121.78 26.5829C122.447 28.405 123.355 30.0402 124.503 31.4819C125.644 32.9235 127.059 34.1049 128.734 35.0126C130.41 35.9203 132.178 36.3808 134.041 36.3808H134.034Z" fill="#061812"/>
<path d="M161.532 36.6879C164.489 36.6879 166.959 35.8269 168.928 34.1049C170.897 32.3829 171.884 30.2671 171.884 27.7509V13.5145C171.884 12.787 171.677 12.2931 171.27 12.0328C170.863 11.7725 170.383 11.6991 169.835 11.8259C169.288 11.9527 168.707 12.1864 168.093 12.5401V12.2598L174.04 8.54883H174.347V33.4775C174.347 34.3719 174.628 35.0994 175.182 35.6533C175.869 36.3408 176.85 36.7212 178.112 36.7946V37.075C177.571 37.075 176.763 37.0816 175.682 37.1017C174.601 37.1217 173.793 37.1284 173.253 37.1284C172.845 37.1284 172.532 37.0216 172.318 36.808C172.105 36.5944 171.978 36.3541 171.938 36.0805C171.898 35.8068 171.884 35.4131 171.884 34.8925V30.8478C171.197 32.5631 169.962 34.0381 168.187 35.2729C166.411 36.5077 164.169 37.1284 161.472 37.1284C160.338 37.1284 159.283 37.0149 158.315 36.7946C155.839 36.2006 153.877 35.0059 152.422 33.2239C150.974 31.4351 150.133 29.4996 149.912 27.4172C149.872 27.1969 149.859 26.8499 149.859 26.3827V13.5145C149.859 12.4333 149.439 11.866 148.604 11.8126C147.857 11.7592 147.022 11.9995 146.095 12.5401V12.2598C146.762 11.8326 147.757 11.2052 149.071 10.391C150.386 9.57001 151.374 8.95596 152.042 8.54883H152.322V26.3894C152.322 27.1903 152.395 27.9511 152.542 28.6786C152.729 29.6998 153.043 30.6676 153.477 31.582C153.917 32.4964 154.484 33.344 155.178 34.1249C155.873 34.9058 156.774 35.5332 157.875 35.9937C158.97 36.4609 160.191 36.6945 161.532 36.6945V36.6879Z" fill="#061812"/>
<path d="M179.82 13.682C179.78 14.8767 180.114 15.9713 180.814 16.9791C181.515 17.9869 182.436 18.8546 183.578 19.5888C184.719 20.3229 185.994 21.0238 187.389 21.6845C188.784 22.3453 190.185 22.9927 191.587 23.6267C192.988 24.2608 194.277 24.9082 195.438 25.569C196.599 26.2297 197.547 27.004 198.274 27.8983C199.002 28.7927 199.362 29.7605 199.362 30.8017C199.362 31.0219 199.322 31.3223 199.249 31.696C198.875 33.2378 197.774 34.5994 195.938 35.774C194.103 36.9487 191.967 37.5361 189.531 37.5361C189.197 37.5361 188.603 37.496 187.742 37.4226C186.795 37.3091 185.847 37.1089 184.892 36.8219C183.945 36.5349 182.963 36.1278 181.949 35.6072C180.934 35.0866 179.96 34.3724 179.032 33.4714C178.105 32.5704 177.31 31.5225 176.656 30.3278H179.393C179.58 30.6415 179.793 30.9485 180.033 31.2488C181.041 32.5303 182.236 33.6516 183.624 34.6127C185.013 35.5738 186.488 36.2279 188.049 36.5816C188.944 36.7685 189.778 36.862 190.559 36.862C192.401 36.862 193.929 36.4815 195.138 35.7207C196.346 34.9598 196.953 33.8318 196.953 32.3434C196.953 31.1888 196.593 30.1409 195.878 29.1865C195.164 28.2387 194.223 27.4244 193.075 26.7437C191.92 26.0629 190.652 25.4155 189.264 24.8014C187.876 24.1874 186.488 23.5667 185.106 22.9326C183.718 22.2985 182.45 21.6311 181.295 20.9236C180.14 20.2162 179.206 19.3618 178.492 18.354C177.778 17.3462 177.417 16.2316 177.417 15.0035C177.417 14.6898 177.457 14.2693 177.531 13.7487C177.811 12.5006 178.492 11.4394 179.566 10.5517C180.647 9.67069 181.876 9.02996 183.25 8.63617C184.625 8.24906 186.067 8.04883 187.575 8.04883C189.084 8.04883 190.385 8.25573 191.653 8.66287C194.223 9.51718 196.185 11.1591 197.547 13.5752C197.6 13.6686 197.687 13.8221 197.801 14.0357C197.914 14.2493 197.994 14.4028 198.054 14.4962H195.318C194.891 13.1213 194.156 11.9333 193.115 10.9388C192.074 9.94434 190.846 9.24353 189.431 8.82972C188.63 8.60947 187.749 8.49601 186.781 8.49601C184.886 8.49601 183.264 8.93652 181.922 9.82421C180.581 10.7119 179.887 12 179.827 13.6887L179.82 13.682Z" fill="#061812"/>
<path d="M212.678 17.0049L212.792 16.6178C214.32 16.6178 215.789 16.8981 217.204 17.4521C218.619 18.0127 219.847 18.7402 220.888 19.6413C221.929 20.5423 222.843 21.5568 223.624 22.6714C224.405 23.786 224.999 24.9207 225.4 26.062C225.8 27.2033 226 28.2845 226 29.2857C226 29.8797 225.934 30.4871 225.793 31.1011C225.653 31.7151 225.373 32.4026 224.939 33.1501C224.512 33.9043 223.951 34.5584 223.264 35.1191C222.576 35.6797 221.615 36.1536 220.374 36.5407C219.139 36.9278 217.717 37.128 216.116 37.128C214.514 37.128 212.698 36.8744 210.836 36.3738C207.559 35.4261 204.923 33.6907 202.92 31.1812C200.918 28.6716 199.917 25.815 199.917 22.6113C199.917 20.0617 200.504 17.719 201.692 15.5766C202.874 13.4341 204.542 11.7255 206.691 10.4507C208.841 9.17589 211.237 8.53516 213.88 8.53516C214.921 8.53516 215.929 8.64862 216.897 8.86887C219.092 9.3561 220.948 10.3105 222.47 11.7455C223.985 13.1805 225.106 14.7957 225.833 16.6044V17.0516H202.827C202.493 18.2597 202.326 19.5211 202.326 20.8226C202.326 23.8928 203.234 26.7761 205.05 29.4792C206.865 32.1757 209.248 34.0779 212.211 35.1724C213.793 35.7464 215.428 36.0401 217.123 36.0401C219.653 36.0401 221.669 35.4394 223.17 34.238C224.672 33.0367 225.44 31.4348 225.473 29.4192C225.493 27.5971 224.946 25.7283 223.824 23.8194C222.703 21.9105 221.141 20.2953 219.119 18.9738C217.097 17.6523 214.954 16.9915 212.685 16.9915L212.678 17.0049ZM202.967 16.6111H223.07C222.082 14.8024 220.948 13.334 219.666 12.1994C218.565 11.1582 217.284 10.3773 215.815 9.85667C214.607 9.48291 213.426 9.29603 212.271 9.29603C210.336 9.29603 208.647 9.75656 207.205 10.6776C205.764 11.5987 204.629 12.8668 203.815 14.4887C203.501 15.1027 203.221 15.8102 202.981 16.6111H202.967Z" fill="#061812"/>
<path d="M24.7952 27.4249L24.7218 27.6852C23.7006 27.6852 22.7195 27.4983 21.7717 27.1245C20.8239 26.7508 20.003 26.2635 19.3089 25.6562C18.6147 25.0555 18.0007 24.3747 17.4801 23.6338C16.9595 22.893 16.559 22.1321 16.2921 21.3646C16.0251 20.597 15.8916 19.8829 15.8916 19.2088C15.8916 18.8083 15.9383 18.4078 16.0318 17.994C16.1252 17.5802 16.3121 17.1264 16.5991 16.6191C16.8861 16.1119 17.2598 15.678 17.7204 15.3043C18.1809 14.9305 18.8216 14.6168 19.6493 14.3498C20.4769 14.0829 21.4246 13.9561 22.4992 13.9561C23.5738 13.9561 24.7818 14.1229 26.0299 14.4633C28.2191 15.0974 29.9811 16.2587 31.3227 17.934C32.6642 19.6092 33.3317 21.5248 33.3317 23.6672C33.3317 25.3692 32.9379 26.9377 32.1436 28.3726C31.3561 29.8009 30.2414 30.9489 28.7998 31.7966C27.3648 32.6509 25.763 33.078 23.9943 33.078C23.3001 33.078 22.626 33.0046 21.9786 32.8511C20.5102 32.5241 19.2688 31.8833 18.2543 30.9289C17.2398 29.9678 16.4923 28.8866 16.0051 27.6785V27.3782H22.8529H31.3828C31.6097 26.5706 31.7165 25.7296 31.7165 24.8553C31.7165 22.7996 31.1091 20.8707 29.8944 19.0686C28.6796 17.2665 27.0845 15.9917 25.1089 15.2575C24.0543 14.8704 22.9531 14.6769 21.8251 14.6769C20.1298 14.6769 18.7883 15.0773 17.7804 15.8783C16.7793 16.6792 16.2654 17.7538 16.2387 19.0953C16.2253 20.3167 16.5924 21.5648 17.3399 22.8396C18.0875 24.1144 19.1353 25.1956 20.4835 26.0767C21.8318 26.9577 23.2668 27.4048 24.7885 27.4048L24.7952 27.4249ZM31.296 27.6852H17.8539C18.5146 28.8932 19.2755 29.8744 20.1298 30.6352C20.864 31.3294 21.725 31.8566 22.7061 32.2037C23.5137 32.4507 24.3079 32.5775 25.0755 32.5775C26.3703 32.5775 27.4983 32.2705 28.4661 31.6564C29.4338 31.0424 30.188 30.1881 30.7353 29.1068C30.9489 28.693 31.1358 28.2258 31.296 27.6852Z" fill="#061812"/>
<path d="M24.6083 0C11.0193 0 0 11.0193 0 24.6083C0 38.1973 11.0193 49.2166 24.6083 49.2166C38.1973 49.2166 49.2166 38.1973 49.2166 24.6083C49.2166 11.0193 38.1973 0 24.6083 0ZM31.7031 47.1809C30.7687 47.3678 25.6762 48.389 21.2044 45.6925C17.8806 43.6902 18.3544 41.728 14.3432 37.9236C9.73119 33.5519 7.61542 34.7399 5.16594 31.5563C1.17468 26.377 3.35052 18.5346 4.01128 16.0184C4.34499 14.7369 4.94568 12.501 6.53418 9.97814C7.26168 8.82348 9.78459 4.92567 14.4233 2.78988C21.191 -0.327037 30.1013 1.37492 34.4263 6.26054C36.9892 9.1572 35.681 10.699 39.2184 15.6847C42.9294 20.9174 45.5057 20.8573 46.7404 24.5282C48.2355 28.9733 45.9261 33.4451 44.5112 36.1816C43.4166 38.2974 39.6589 45.5791 31.6964 47.1743L31.7031 47.1809Z" fill="#061812"/>
<path d="M109.467 51.9856C109.106 51.7787 108.819 51.4851 108.606 51.1247C108.392 50.7576 108.285 50.3504 108.285 49.9099C108.285 49.4694 108.392 49.0623 108.606 48.6952C108.819 48.3281 109.106 48.0411 109.467 47.8342C109.827 47.6273 110.221 47.5205 110.648 47.5205C111.148 47.5205 111.602 47.6607 112.003 47.9343C112.403 48.208 112.69 48.5884 112.85 49.069H112.096C111.956 48.7886 111.756 48.5684 111.496 48.4082C111.235 48.248 110.948 48.1746 110.641 48.1746C110.334 48.1746 110.074 48.2547 109.82 48.4015C109.567 48.555 109.373 48.7619 109.226 49.0289C109.079 49.2959 109.013 49.5896 109.013 49.9099C109.013 50.2303 109.086 50.5306 109.226 50.7909C109.366 51.0512 109.567 51.2648 109.82 51.4183C110.074 51.5718 110.341 51.6453 110.641 51.6453C110.942 51.6453 111.235 51.5652 111.496 51.4117C111.756 51.2581 111.956 51.0379 112.096 50.7509H112.85C112.69 51.2314 112.403 51.6119 112.003 51.8855C111.602 52.1592 111.148 52.2993 110.648 52.2993C110.221 52.2993 109.827 52.1925 109.467 51.9856Z" fill="#061812"/>
<path d="M117.295 50.1904C117.436 50.3906 117.502 50.6242 117.502 50.8979C117.502 51.285 117.355 51.6054 117.062 51.8456C116.768 52.0926 116.368 52.2127 115.867 52.2127H113.845V47.6074H115.727C116.201 47.6074 116.581 47.7209 116.855 47.9478C117.129 48.1747 117.269 48.4684 117.269 48.8288C117.269 49.0157 117.215 49.1959 117.115 49.3628C117.008 49.5296 116.882 49.6631 116.715 49.7566C116.968 49.8433 117.162 49.9902 117.295 50.1904ZM114.546 48.2615V49.4896H115.694C115.961 49.4896 116.167 49.4295 116.314 49.3161C116.461 49.2026 116.528 49.0491 116.528 48.8689C116.528 48.6887 116.454 48.5485 116.314 48.435C116.174 48.3216 115.974 48.2615 115.72 48.2615H114.546ZM115.867 51.552C116.147 51.552 116.368 51.4919 116.528 51.3651C116.688 51.2383 116.768 51.0647 116.768 50.8512C116.768 50.6376 116.688 50.4507 116.521 50.3239C116.361 50.1971 116.127 50.137 115.834 50.137H114.546V51.5586H115.86L115.867 51.552Z" fill="#061812"/>
<path d="M122.301 47.6073H123.009V52.2126H122.301V51.5051C122.108 51.752 121.861 51.9456 121.567 52.0858C121.273 52.2326 120.953 52.2993 120.606 52.2993C120.186 52.2993 119.792 52.1925 119.431 51.9856C119.071 51.7787 118.777 51.4851 118.57 51.1247C118.357 50.7576 118.25 50.3504 118.25 49.9099C118.25 49.4694 118.357 49.0623 118.57 48.6952C118.784 48.3281 119.071 48.0411 119.431 47.8342C119.792 47.6273 120.186 47.5205 120.606 47.5205C120.953 47.5205 121.273 47.5939 121.567 47.7341C121.861 47.8809 122.108 48.0745 122.301 48.3148V47.6073ZM121.514 51.4183C121.767 51.2648 121.974 51.0579 122.128 50.7909C122.281 50.524 122.355 50.2303 122.355 49.9099C122.355 49.5896 122.281 49.2892 122.128 49.0289C121.974 48.7686 121.774 48.555 121.514 48.4015C121.26 48.248 120.973 48.1746 120.666 48.1746C120.359 48.1746 120.079 48.2547 119.818 48.4015C119.558 48.555 119.358 48.7619 119.204 49.0289C119.058 49.2892 118.978 49.5896 118.978 49.9099C118.978 50.2303 119.051 50.5306 119.204 50.7909C119.358 51.0512 119.558 51.2648 119.818 51.4183C120.072 51.5718 120.359 51.6453 120.666 51.6453C120.973 51.6453 121.253 51.5652 121.514 51.4183Z" fill="#061812"/>
<path d="M128.128 51.552H128.835V53.5276H128.128V52.2127H124.557V53.5276H123.85V51.552C124.097 51.552 124.303 51.4518 124.477 51.2516C124.651 51.0514 124.751 50.7777 124.771 50.424L125.004 47.6074H128.121V51.552H128.128ZM127.42 51.552V48.2615H125.652L125.465 50.424C125.438 50.6976 125.391 50.9246 125.325 51.1048C125.258 51.285 125.164 51.4318 125.044 51.552H127.42Z" fill="#061812"/>
<path d="M132.859 47.7946C133.206 47.9882 133.48 48.2552 133.68 48.6022C133.88 48.9493 133.981 49.3431 133.981 49.7903C133.981 49.9438 133.981 50.0573 133.961 50.1373H130.136C130.183 50.5979 130.343 50.9583 130.617 51.2319C130.897 51.5056 131.257 51.6391 131.705 51.6391C132.359 51.6391 132.826 51.3721 133.113 50.8381H133.867C133.68 51.3054 133.4 51.6658 133.033 51.9194C132.666 52.173 132.219 52.2932 131.705 52.2932C131.271 52.2932 130.877 52.1864 130.523 51.9795C130.17 51.7726 129.889 51.4856 129.689 51.1185C129.489 50.7514 129.389 50.3509 129.389 49.8971C129.389 49.4432 129.489 49.0361 129.689 48.6757C129.889 48.3153 130.17 48.0283 130.523 47.8147C130.877 47.6011 131.271 47.501 131.705 47.501C132.139 47.501 132.506 47.5944 132.853 47.788L132.859 47.7946ZM130.677 48.5288C130.403 48.7691 130.236 49.0895 130.163 49.5033H133.233C133.186 49.1028 133.026 48.7825 132.739 48.5355C132.452 48.2886 132.105 48.1684 131.698 48.1684C131.291 48.1684 130.944 48.2886 130.67 48.5288H130.677Z" fill="#061812"/>
<path d="M138.427 48.0009C138.767 48.2012 139.041 48.4815 139.241 48.8352C139.441 49.189 139.541 49.5761 139.541 49.9966C139.541 50.4171 139.435 50.8042 139.228 51.1579C139.014 51.5116 138.734 51.792 138.38 51.9922C138.02 52.1924 137.632 52.2992 137.212 52.2992C136.792 52.2992 136.391 52.2058 136.037 52.0189C135.677 51.832 135.39 51.525 135.17 51.1045C134.949 50.684 134.836 50.1301 134.836 49.4559C134.836 48.5215 134.969 47.774 135.236 47.2C135.503 46.6327 135.884 46.2389 136.378 46.032C136.678 45.9052 136.965 45.8118 137.239 45.7517C137.512 45.6916 137.893 45.6182 138.387 45.5381C138.694 45.4914 138.947 45.4513 139.141 45.418V46.1254C138.827 46.1788 138.574 46.2256 138.367 46.2589C137.919 46.3257 137.579 46.3857 137.325 46.4391C137.072 46.4925 136.852 46.566 136.651 46.6594C136.344 46.7996 136.097 47.0198 135.917 47.3335C135.737 47.6405 135.624 48.021 135.59 48.4548C136.004 47.9542 136.571 47.7006 137.299 47.7006C137.706 47.7006 138.08 47.8007 138.42 48.0076L138.427 48.0009ZM138.006 51.4249C138.253 51.278 138.447 51.0778 138.587 50.8309C138.734 50.5772 138.8 50.3036 138.8 50.0032C138.8 49.7029 138.727 49.4293 138.587 49.1756C138.447 48.922 138.247 48.7284 138.006 48.5816C137.759 48.4348 137.499 48.3614 137.205 48.3614C136.912 48.3614 136.651 48.4348 136.404 48.5816C136.157 48.7284 135.964 48.9287 135.824 49.1756C135.684 49.4226 135.61 49.7029 135.61 50.0032C135.61 50.3036 135.684 50.5772 135.824 50.8309C135.971 51.0845 136.164 51.278 136.404 51.4249C136.645 51.5717 136.918 51.6451 137.205 51.6451C137.492 51.6451 137.759 51.5717 138.006 51.4249Z" fill="#061812"/>
<path d="M143.86 49.5295V47.6006H144.567V52.2059H143.86V50.1836H141.277V52.2059H140.569V47.6006H141.277V49.5295H143.86Z" fill="#061812"/>
<path d="M147.677 49.2024C148.224 49.2024 148.651 49.3426 148.971 49.6162C149.292 49.8899 149.452 50.257 149.452 50.7042C149.452 51.1513 149.292 51.5184 148.971 51.7921C148.651 52.0657 148.217 52.2059 147.677 52.2059H145.975V47.6006H146.682V49.1958H147.677V49.2024ZM147.677 51.5518C148.017 51.5518 148.271 51.4784 148.451 51.3382C148.631 51.198 148.718 50.9845 148.718 50.7042C148.718 50.4238 148.631 50.2103 148.451 50.0701C148.271 49.9299 148.01 49.8565 147.677 49.8565H146.682V51.5518H147.677ZM150.153 52.2125V47.6073H150.86V52.2125H150.153Z" fill="#061812"/>
<path d="M152.977 51.0717L155.747 47.6011H156.307V52.2064H155.6V48.7357L152.83 52.2064H152.27V47.6011H152.977V51.0717ZM153.304 46.66C153.044 46.4197 152.897 46.106 152.87 45.7256H153.544C153.571 45.9659 153.651 46.1461 153.791 46.2662C153.931 46.3863 154.112 46.4531 154.325 46.4531C154.539 46.4531 154.712 46.393 154.859 46.2662C154.999 46.1461 155.079 45.9659 155.106 45.7256H155.78C155.754 46.106 155.613 46.4197 155.346 46.66C155.086 46.9003 154.739 47.0204 154.319 47.0204C153.898 47.0204 153.558 46.9003 153.291 46.66H153.304Z" fill="#061812"/>
<path d="M161.206 51.9856C160.845 51.7787 160.558 51.4851 160.345 51.1247C160.131 50.7576 160.024 50.3504 160.024 49.9099C160.024 49.4694 160.131 49.0623 160.345 48.6952C160.558 48.3281 160.845 48.0411 161.206 47.8342C161.566 47.6273 161.96 47.5205 162.387 47.5205C162.888 47.5205 163.342 47.6607 163.742 47.9343C164.142 48.208 164.429 48.5884 164.59 49.069H163.835C163.695 48.7886 163.495 48.5684 163.235 48.4082C162.974 48.248 162.687 48.1746 162.38 48.1746C162.073 48.1746 161.813 48.2547 161.56 48.4015C161.306 48.555 161.112 48.7619 160.965 49.0289C160.819 49.2959 160.752 49.5896 160.752 49.9099C160.752 50.2303 160.825 50.5306 160.965 50.7909C161.106 51.0512 161.306 51.2648 161.56 51.4183C161.813 51.5718 162.08 51.6453 162.38 51.6453C162.681 51.6453 162.974 51.5652 163.235 51.4117C163.495 51.2581 163.695 51.0379 163.835 50.7509H164.59C164.429 51.2314 164.142 51.6119 163.742 51.8855C163.342 52.1592 162.888 52.2993 162.387 52.2993C161.96 52.2993 161.566 52.1925 161.206 51.9856Z" fill="#061812"/>
<path d="M169.301 47.6073H170.009V52.2126H169.301V51.5051C169.108 51.752 168.861 51.9456 168.567 52.0858C168.273 52.2326 167.953 52.2993 167.606 52.2993C167.186 52.2993 166.792 52.1925 166.431 51.9856C166.071 51.7787 165.777 51.4851 165.57 51.1247C165.357 50.7576 165.25 50.3504 165.25 49.9099C165.25 49.4694 165.357 49.0623 165.57 48.6952C165.784 48.3281 166.071 48.0411 166.431 47.8342C166.792 47.6273 167.186 47.5205 167.606 47.5205C167.953 47.5205 168.273 47.5939 168.567 47.7341C168.861 47.8809 169.108 48.0745 169.301 48.3148V47.6073ZM168.507 51.4183C168.761 51.2648 168.968 51.0579 169.121 50.7909C169.275 50.524 169.348 50.2303 169.348 49.9099C169.348 49.5896 169.275 49.2892 169.121 49.0289C168.968 48.7686 168.767 48.555 168.507 48.4015C168.253 48.248 167.966 48.1746 167.659 48.1746C167.352 48.1746 167.072 48.2547 166.812 48.4015C166.551 48.555 166.351 48.7619 166.198 49.0289C166.051 49.2892 165.971 49.5896 165.971 49.9099C165.971 50.2303 166.044 50.5306 166.198 50.7909C166.351 51.0512 166.551 51.2648 166.812 51.4183C167.065 51.5718 167.352 51.6453 167.659 51.6453C167.966 51.6453 168.247 51.5652 168.507 51.4183Z" fill="#061812"/>
<path d="M172.099 47.6074H175.202V52.2127H174.495V48.2682H172.753L172.573 50.6175C172.486 51.7121 171.979 52.2594 171.057 52.2594H170.891V51.572H171.057C171.318 51.572 171.511 51.4852 171.638 51.3184C171.765 51.1515 171.838 50.8645 171.872 50.464L172.085 47.6074H172.099Z" fill="#061812"/>
<path d="M177.478 51.9856C177.111 51.7787 176.817 51.4851 176.603 51.1247C176.39 50.7576 176.276 50.3504 176.276 49.9099C176.276 49.4694 176.383 49.0623 176.603 48.6952C176.817 48.3281 177.111 48.0411 177.478 47.8342C177.845 47.6273 178.245 47.5205 178.686 47.5205C179.126 47.5205 179.527 47.6273 179.894 47.8342C180.261 48.0411 180.555 48.3348 180.768 48.6952C180.982 49.0623 181.095 49.4694 181.095 49.9099C181.095 50.3504 180.988 50.7576 180.768 51.1247C180.555 51.4917 180.261 51.7787 179.894 51.9856C179.527 52.1925 179.126 52.2993 178.686 52.2993C178.245 52.2993 177.845 52.1925 177.478 51.9856ZM179.527 51.4183C179.78 51.2648 179.981 51.0579 180.134 50.7909C180.288 50.5306 180.361 50.2303 180.361 49.9099C180.361 49.5896 180.288 49.2892 180.134 49.0289C179.987 48.7686 179.78 48.555 179.527 48.4015C179.273 48.248 178.993 48.1746 178.686 48.1746C178.379 48.1746 178.098 48.2547 177.845 48.4015C177.591 48.555 177.391 48.7619 177.237 49.0289C177.091 49.2892 177.011 49.5896 177.011 49.9099C177.011 50.2303 177.084 50.5306 177.237 50.7909C177.391 51.0512 177.591 51.2648 177.845 51.4183C178.098 51.5718 178.379 51.6453 178.686 51.6453C178.993 51.6453 179.273 51.5652 179.527 51.4183Z" fill="#061812"/>
<path d="M185.46 49.5295V47.6006H186.168V52.2059H185.46V50.1836H182.877V52.2059H182.17V47.6006H182.877V49.5295H185.46Z" fill="#061812"/>
</svg>
